<?xml version="1.0" encoding="UTF-8"?>
<svg width="13px" height="22px" viewBox="0 0 13 22" version="1.1" xmlns="http://www.w3.org/2000/svg" xmlns:xlink="http://www.w3.org/1999/xlink">
    <title>Regular – Social/Heart</title>
    <g id="Page-1" stroke="none" stroke-width="1" fill="none" fill-rule="evenodd">
        <g id="Add-admin-search" transform="translate(-18.000000, -19.000000)" fill="#FFFFFF">
            <g id="Regular-–-Social/Heart" transform="translate(18.037129, 19.286545)">
                <path d="M1.60970578,12.9888612 L0.470721113,11.8498761 C-0.156907089,11.2222478 -0.15690703,10.2046613 0.470721245,9.57703306 L1.59594875,8.45180546 L1.59594448,8.45039478 L7.59514901,2.45119025 L9.52158534,0.52448355 C9.5293953,0.516673599 9.53719346,0.508965667 9.54498052,0.501358739 L9.57644919,0.469890066 C9.80556857,0.254599603 10.0252221,0.12508838 10.2531691,0.0559984487 C10.4995085,-0.0186661496 10.7514344,-0.0186661496 10.9977738,0.0559984487 C11.2441132,0.130663047 11.4807668,0.275892741 11.7293576,0.52448355 L11.7944286,0.589554544 C12.0430194,0.838145352 12.1882491,1.07479887 12.2629137,1.32113831 C12.3375783,1.56747774 12.3375783,1.81940358 12.2629137,2.06574301 C12.1938237,2.29369006 12.0643125,2.51334355 11.8483951,2.74183597 L3.87857117,10.7134545 L11.8492924,18.6841758 C12.064365,18.9133842 12.1938378,19.1329949 12.2629137,19.3608957 C12.3375783,19.6072351 12.3375783,19.859161 12.2629137,20.1055004 C12.1882491,20.3518398 12.0430194,20.5884934 11.7944286,20.8370842 L11.7293576,20.9021552 C11.4807668,21.150746 11.2441132,21.2959757 10.9977738,21.3706403 C10.7514344,21.4453049 10.4995085,21.4453049 10.2531691,21.3706403 C10.0252683,21.3015643 9.80565766,21.1720916 9.57721517,20.956253 L1.60971008,12.9902799 L1.60970578,12.9888612 Z" id="Style"></path>
            </g>
        </g>
    </g>
</svg>